# File created by Blade
# Date/Time:  Tue Sep 30 19:29:27 2014
#---------------------------------------------------------
:version 1.10
:name HOM
:units
  mass 1.0
  length 1.000000
  angle deg
:documentation
     Acclaim Skeleton File
:root
   axis xyz
   order TX TY TZ RX RY RZ
   position 0.000000 0.000000 0.000000
   orientation 0 0 0
:bonedata
   begin
      id 1
      name RightUpLeg_dum
      direction -1.000000 0.000000 0.000000
      length 3.766986
      axis 0.0 0.0 0.0 xyz
   end
   begin
      id 2
      name LeftUpLeg_dum
      direction 1.000000 0.000000 0.000000
      length 3.766986
      axis 0.0 0.0 0.0 xyz
   end
   begin
      id 3
      name Spine_dum
      direction 0.000000 1.000000 0.000000
      length 7.779697
      axis 0.0 0.0 0.0 xyz
   end
   begin
      id 4
      name RightUpLeg
      direction 0.000000 -1.000000 0.000000
      length 18.017682
      axis 0.0 0.0 0.0 xyz
      dof rx ry rz
   end
   begin
      id 5
      name RightLeg
      direction 0.000000 -1.000000 0.000000
      length 16.881075
      axis 0.0 0.0 0.0 xyz
      dof rx ry rz
   end
   begin
      id 6
      name RightFoot
      direction 0.000000 -0.258819 0.965926
      length 5.770812
      axis 15.0 0.0 0.0 xyz
      dof rx ry rz
   end
   begin
      id 7
      name RightToeBase
      direction 0.000000 0.000000 1.000000
      length 2.952750
      axis 0.0 0.0 0.0 xyz
      dof rx ry rz
   end
   begin
      id 8
      name LeftUpLeg
      direction 0.000000 -1.000000 0.000000
      length 18.017682
      axis 0.0 0.0 0.0 xyz
      dof rx ry rz
   end
   begin
      id 9
      name LeftLeg
      direction 0.000000 -1.000000 0.000000
      length 16.881075
      axis 0.0 0.0 0.0 xyz
      dof rx ry rz
   end
   begin
      id 10
      name LeftFoot
      direction 0.000000 -0.258819 0.965926
      length 5.770812
      axis 15.0 0.0 0.0 xyz
      dof rx ry rz
   end
   begin
      id 11
      name LeftToeBase
      direction 0.000000 0.000000 1.000000
      length 2.952750
      axis 0.0 0.0 0.0 xyz
      dof rx ry rz
   end
   begin
      id 12
      name Spine
      direction 0.000000 1.000000 0.000000
      length 0.000000
      axis 0.0 0.0 0.0 xyz
      dof rx ry rz
   end
   begin
      id 13
      name Spine_dum1
      direction 0.000000 1.000000 0.000000
      length 10.941760
      axis 0.0 0.0 0.0 xyz
   end
   begin
      id 14
      name Spine_dum2
      direction 0.000000 1.000000 0.000000
      length 10.941760
      axis 0.0 0.0 0.0 xyz
   end
   begin
      id 15
      name Spine_dum3
      direction 0.000000 1.000000 0.000000
      length 16.646042
      axis 0.0 0.0 0.0 xyz
   end
   begin
      id 16
      name RightShoulder
      direction -1.000000 0.000000 0.000000
      length 7.708937
      axis 0.0 0.0 90.0 xyz
      dof rx ry rz
   end
   begin
      id 17
      name RightArm
      direction -1.000000 0.000000 0.000000
      length 11.521345
      axis 0.0 0.0 90.0 xyz
      dof rx ry rz
   end
   begin
      id 18
      name RightForeArm
      direction -1.000000 0.000000 0.000000
      length 10.175898
      axis 0.0 0.0 90.0 xyz
      dof ry rz rx
   end
   begin
      id 19
      name RightHand
      direction -1.000000 0.000000 0.000000
      length 0.000000
      axis 0.0 0.0 90.0 xyz
      dof rx ry rz
   end
   begin
      id 20
      name RightHand_dum1
      direction -1.000000 0.000000 0.000000
      length 3.937000
      axis 0.0 0.0 90.0 xyz
   end
   begin
      id 21
      name RightHand_dum2
      direction 0.000000 0.000000 0.000000
      length 0.000000
      axis 0.0 0.0 90.0 xyz
   end
   begin
      id 22
      name RightHandThumb1
      direction 0.000000 0.000000 1.000000
      length 3.937000
      axis 0.0 0.0 90.0 xyz
      dof rx rz ry
   end
   begin
      id 23
      name LeftShoulder
      direction 1.000000 0.000000 0.000000
      length 7.708937
      axis 0.0 0.0 -90.0 xyz
      dof rx ry rz
   end
   begin
      id 24
      name LeftArm
      direction 1.000000 0.000000 0.000000
      length 11.521345
      axis 0.0 0.0 -90.0 xyz
      dof rx ry rz
   end
   begin
      id 25
      name LeftForeArm
      direction 1.000000 0.000000 0.000000
      length 10.175898
      axis 0.0 0.0 -90.0 xyz
      dof ry rz rx
   end
   begin
      id 26
      name LeftHand
      direction 1.000000 0.000000 0.000000
      length 0.000000
      axis 0.0 0.0 -90.0 xyz
      dof rx ry rz
   end
   begin
      id 27
      name LeftHand_dum1
      direction 1.000000 0.000000 0.000000
      length 3.937000
      axis 0.0 0.0 -90.0 xyz
   end
   begin
      id 28
      name LeftHand_dum2
      direction 0.000000 0.000000 0.000000
      length 0.000000
      axis 0.0 0.0 -90.0 xyz
   end
   begin
      id 29
      name LeftHandThumb1
      direction 0.000000 0.000000 1.000000
      length 3.937000
      axis 0.0 0.0 -90.0 xyz
      dof rx rz ry
   end
   begin
      id 30
      name Head
      direction 0.000000 1.000000 0.000000
      length 4.527550
      axis 0.0 0.0 0.0 xyz
      dof rx ry rz
   end
:hierarchy
   begin
      root RightUpLeg_dum LeftUpLeg_dum Spine_dum
      RightUpLeg_dum RightUpLeg
      LeftUpLeg_dum LeftUpLeg
      Spine_dum Spine
      RightUpLeg RightLeg
      RightLeg RightFoot
      RightFoot RightToeBase
      LeftUpLeg LeftLeg
      LeftLeg LeftFoot
      LeftFoot LeftToeBase
      Spine Spine_dum1 Spine_dum2 Spine_dum3
      Spine_dum1 RightShoulder
      Spine_dum2 LeftShoulder
      Spine_dum3 Head
      RightShoulder RightArm
      RightArm RightForeArm
      RightForeArm RightHand
      RightHand RightHand_dum1 RightHand_dum2
      RightHand_dum2 RightHandThumb1
      LeftShoulder LeftArm
      LeftArm LeftForeArm
      LeftForeArm LeftHand
      LeftHand LeftHand_dum1 LeftHand_dum2
      LeftHand_dum2 LeftHandThumb1
   end

# File created by Blade
# Date/Time:  Mon Sep 22 17:23:16 2014
# Frame Rate: 120.000 fps
#------------------------------------------------------
:FULLY-SPECIFIED
:DEGREES
406
root 1.500238 37.750705 0.719249 -23.514682 30.318438 -3.644582
RightUpLeg -64.201719 13.514367 18.102148
RightLeg 102.708375 -0.000000 -0.000000
RightFoot -7.887671 -6.398749 13.346215
RightToeBase -2.609325 -0.000000 0.000000
LeftUpLeg 24.527957 -21.490312 -11.711340
LeftLeg 8.753583 -0.000000 -0.000000
LeftFoot -7.758808 -0.377027 -15.273465
LeftToeBase 9.682599 -0.000000 -0.000000
Spine 31.681029 -36.015216 -19.603756
RightShoulder -4.216063 -30.516639 -5.822420
RightArm 12.410814 -22.319311 63.734955
RightForeArm -166.661603 -0.000000 44.104227
RightHand 101.689561 -0.000000 -172.582789
RightHandThumb1 -24.326973 -0.000000 -32.862282
LeftShoulder -5.605174 24.359001 14.460329
LeftArm 77.914986 -22.122328 -55.359107
LeftForeArm 41.575461 -0.000000 28.720650
LeftHand -22.306901 -0.000000 -0.084079
LeftHandThumb1 -26.253704 0.000000 33.147579
Head 8.623146 12.809516 8.891932
407
root 1.508286 37.744107 0.718606 -23.508780 30.296292 -3.657146
RightUpLeg -64.200128 13.516714 18.110210
RightLeg 102.736817 -0.000000 -0.000000
RightFoot -7.883843 -6.371289 13.376568
RightToeBase -2.598050 -0.000000 0.000000
LeftUpLeg 24.499174 -21.608496 -11.807151
LeftLeg 8.867588 -0.000000 -0.000000
LeftFoot -7.790060 -0.138743 -14.900256
LeftToeBase 8.969322 -0.000000 -0.000000
Spine 31.632417 -35.933237 -19.429171
RightShoulder -4.143595 -30.498153 -5.927771
RightArm 12.402388 -22.207319 63.699710
RightForeArm -166.619772 -0.000000 44.107554
RightHand 101.681959 -0.000000 -172.399306
RightHandThumb1 -24.326973 -0.000000 -32.862282
LeftShoulder -5.658733 24.463413 14.402528
LeftArm 78.013234 -22.125640 -55.152070
LeftForeArm 41.348497 -0.000000 28.879977
LeftHand -22.205550 -0.000000 -0.301438
LeftHandThumb1 -26.253704 0.000000 33.147579
Head 8.504812 12.821926 8.834009
408
root 1.516789 37.737578 0.716537 -23.495328 30.280469 -3.656984
RightUpLeg -64.200970 13.505783 18.103909
RightLeg 102.769583 -0.000000 -0.000000
RightFoot -7.892086 -6.347254 13.410707
RightToeBase -2.526330 -0.000000 0.000000
LeftUpLeg 24.460633 -21.741812 -11.919712
LeftLeg 8.999208 -0.000000 -0.000000
LeftFoot -7.850174 0.096260 -14.633788
LeftToeBase 8.420272 -0.000000 -0.000000
Spine 31.589670 -35.837251 -19.278441
RightShoulder -4.086604 -30.492893 -5.982271
RightArm 12.418146 -22.108769 63.628032
RightForeArm -166.722235 -0.000000 44.103977
RightHand 101.679314 -0.000000 -171.889842
RightHandThumb1 -24.326973 -0.000000 -32.862282
LeftShoulder -5.655925 24.452238 14.431379
LeftArm 77.953230 -22.046349 -54.896917
LeftForeArm 41.208181 0.000000 29.062220
LeftHand -22.144637 -0.000000 -0.242269
LeftHandThumb1 -26.253704 0.000000 33.147579
Head 8.391247 12.657043 8.707564
409
root 1.527510 37.730693 0.713672 -23.482028 30.239429 -3.647356
RightUpLeg -64.187640 13.506573 18.105126
RightLeg 102.806929 -0.000000 -0.000000
RightFoot -7.901260 -6.352383 13.388316
RightToeBase -2.504964 -0.000000 0.000000
LeftUpLeg 24.435255 -21.861375 -12.044445
LeftLeg 9.114154 -0.000000 -0.000000
LeftFoot -7.908463 0.333822 -14.434638
LeftToeBase 8.055482 -0.000000 -0.000000
Spine 31.540919 -35.731544 -19.102354
RightShoulder -4.032369 -30.482202 -6.070697
RightArm 12.449896 -22.028543 63.578125
RightForeArm -166.667169 -0.000000 44.083794
RightHand 101.645985 -0.000000 -171.977712
RightHandThumb1 -24.326973 -0.000000 -32.862282
LeftShoulder -5.655393 24.413760 14.415000
LeftArm 77.844116 -21.991906 -54.593570
LeftForeArm 41.010805 -0.000000 29.301514
LeftHand -22.076261 -0.000000 -0.414168
LeftHandThumb1 -26.253704 0.000000 33.147579
Head 8.275478 12.597474 8.606489
410
root 1.540294 37.722232 0.711466 -23.464227 30.191307 -3.637847
RightUpLeg -64.178400 13.507151 18.107798
RightLeg 102.857538 -0.000000 -0.000000
RightFoot -7.912263 -6.360650 13.357165
RightToeBase -2.509682 -0.000000 0.000000
LeftUpLeg 24.409969 -21.987308 -12.177452
LeftLeg 9.222974 -0.000000 -0.000000
LeftFoot -7.873904 0.629928 -13.940127
LeftToeBase 7.130109 -0.000000 -0.000000
Spine 31.474682 -35.649201 -18.907096
RightShoulder -3.970431 -30.463648 -6.180603
RightArm 12.492052 -21.965230 63.533860
RightForeArm -166.779680 -0.000000 44.072857
RightHand 101.566138 -0.000000 -171.963980
RightHandThumb1 -24.326973 -0.000000 -32.862282
LeftShoulder -5.675462 24.431777 14.340838
LeftArm 77.766392 -21.971138 -54.205460
LeftForeArm 40.806041 -0.000000 29.479110
LeftHand -22.082312 -0.000000 -0.368084
LeftHandThumb1 -26.253704 0.000000 33.147579
Head 8.182917 12.693260 8.567119
411
root 1.551008 37.715734 0.707575 -23.437833 30.164703 -3.608212
RightUpLeg -64.162250 13.488729 18.088773
RightLeg 102.887464 -0.000000 -0.000000
RightFoot -7.950481 -6.400481 13.348477
RightToeBase -2.412690 -0.000000 0.000000
LeftUpLeg 24.369464 -22.190685 -12.348080
LeftLeg 9.400173 -0.000000 -0.000000
LeftFoot -8.291642 0.793117 -14.617312
LeftToeBase 8.448709 -0.000000 -0.000000
Spine 31.434936 -35.559429 -18.782453
RightShoulder -3.911589 -30.446404 -6.226174
RightArm 12.534265 -21.907265 63.458799
RightForeArm -166.920302 -0.000000 44.062041
RightHand 101.591023 -0.000000 -171.484187
RightHandThumb1 -24.326973 -0.000000 -32.862282
LeftShoulder -5.674172 24.354506 14.338515
LeftArm 77.592496 -21.882458 -53.855896
LeftForeArm 40.599160 -0.000000 29.703614
LeftHand -22.039537 -0.000000 -0.264037
LeftHandThumb1 -26.253704 0.000000 33.147579
Head 8.101187 12.654858 8.533201
